<svg xmlns="http://www.w3.org/2000/svg" version="1.1" xmlns:xlink="http://www.w3.org/1999/xlink" xmlns:svgjs="http://svgjs.com/svgjs" width="1920" height="1024" preserveAspectRatio="none" viewBox="0 0 1920 1024"><g mask="url(&quot;#SvgjsMask1028&quot;)" fill="none"><rect width="1920" height="1024" x="0" y="0" fill="rgba(243, 243, 243, 1)"></rect><path d="M1144.5529446478745 507.2270159118791L1250.4726325469342 629.0736785736667 1372.3192952087218 523.1539906746071 1266.399607309662 401.30732801281954z" fill="rgba(124, 38, 147, 0.11)" class="triangle-float2"></path><path d="M1739.084021943938 503.36714054863535L1472.025900092257 460.8083532409978 1552.8782935960967 682.9484787016569z" fill="rgba(124, 38, 147, 0.11)" class="triangle-float2"></path><path d="M1490.9752462198792 172.5645332506151L1437.2077391986993 7.085162056574745 1271.728368004659 60.85266907775471 1325.4958750258388 226.33204027179508z" fill="rgba(124, 38, 147, 0.11)" class="triangle-float3"></path><path d="M-109.0821671247802 767.7908995158627L-95.89757912285121 956.3392922636992 180.33271599793886 842.2882138868874z" fill="rgba(124, 38, 147, 0.11)" class="triangle-float3"></path><path d="M1541.51 971.52 a285.33 285.33 0 1 0 570.66 0 a285.33 285.33 0 1 0 -570.66 0z" fill="rgba(124, 38, 147, 0.11)" class="triangle-float2"></path><path d="M1807.8996179080184 653.1654034449937L1602.1975942867393 674.7855573303103 1829.519771793335 858.8674270662727z" fill="rgba(124, 38, 147, 0.11)" class="triangle-float1"></path><path d="M1803.015096969552 919.3578413246731L1951.0729690636804 865.4691829336177 1796.211045430033 670.3267039879528z" fill="rgba(124, 38, 147, 0.11)" class="triangle-float2"></path><path d="M1407.239,51.529C1433.69,52.298,1461.357,43.584,1474.564,20.653C1487.752,-2.245,1482.148,-31.024,1467.42,-52.963C1454.312,-72.489,1430.735,-78.62,1407.239,-79.636C1381.175,-80.763,1351.227,-80.657,1337.315,-58.588C1322.826,-35.603,1331.805,-6.012,1346.37,16.925C1359.779,38.042,1382.235,50.802,1407.239,51.529" fill="rgba(124, 38, 147, 0.11)" class="triangle-float3"></path><path d="M417.04604288645567 857.5715239941312L560.8423013941563 764.1891418458383 467.4599192458634 620.3928833381376 323.6636607381628 713.7752654864305z" fill="rgba(124, 38, 147, 0.11)" class="triangle-float3"></path><path d="M907.86 339.24 a205.22 205.22 0 1 0 410.44 0 a205.22 205.22 0 1 0 -410.44 0z" fill="rgba(124, 38, 147, 0.11)" class="triangle-float3"></path><path d="M-140.56 592.67 a279.17 279.17 0 1 0 558.34 0 a279.17 279.17 0 1 0 -558.34 0z" fill="rgba(124, 38, 147, 0.11)" class="triangle-float1"></path><path d="M776.009,1107.046C870.872,1105.497,958.518,1050.969,1001.15,966.211C1040.174,888.625,1014.345,798.826,967.972,725.396C925.216,657.692,856.062,611.541,776.009,609.705C692.592,607.792,613.856,646.41,568.168,716.229C517.435,793.757,494.261,891.973,537.765,973.776C583.558,1059.884,678.494,1108.638,776.009,1107.046" fill="rgba(124, 38, 147, 0.11)" class="triangle-float3"></path><path d="M987.5836913956354 723.7944593598799L1151.9251941478683 913.2120165055289 1226.9011800435956 707.2171882556697z" fill="rgba(124, 38, 147, 0.11)" class="triangle-float2"></path></g><defs><mask id="SvgjsMask1028"><rect width="1920" height="1024" fill="#ffffff"></rect></mask><style>
            @keyframes float1 {
                0%{transform: translate(0, 0)}
                50%{transform: translate(-10px, 0)}
                100%{transform: translate(0, 0)}
            }

            .triangle-float1 {
                animation: float1 5s infinite;
            }

            @keyframes float2 {
                0%{transform: translate(0, 0)}
                50%{transform: translate(-5px, -5px)}
                100%{transform: translate(0, 0)}
            }

            .triangle-float2 {
                animation: float2 4s infinite;
            }

            @keyframes float3 {
                0%{transform: translate(0, 0)}
                50%{transform: translate(0, -10px)}
                100%{transform: translate(0, 0)}
            }

            .triangle-float3 {
                animation: float3 6s infinite;
            }
        </style></defs></svg>