<svg xmlns="http://www.w3.org/2000/svg" version="1.1" xmlns:xlink="http://www.w3.org/1999/xlink" xmlns:svgjs="http://svgjs.com/svgjs" width="1920" height="1024" preserveAspectRatio="none" viewBox="0 0 1920 1024"><g mask="url(&quot;#SvgjsMask1027&quot;)" fill="none"><rect width="1920" height="1024" x="0" y="0" fill="rgba(243, 243, 243, 1)"></rect><path d="M1112.4409806138751 338.20129661631063L1273.903177050362 427.7012535685002 1363.4031340025515 266.23905713201333 1201.9409375660646 176.73910017982377z" fill="rgba(124, 38, 147, 0.11)" class="triangle-float3"></path><path d="M562.0283447832223 336.46944636043565L684.1823134174152 190.89201539099585 416.45091381378256 214.3154777262428z" fill="rgba(124, 38, 147, 0.11)" class="triangle-float3"></path><path d="M1854.5475018161267 609.1193852223834L2071.188866019241 433.68666756111725 1895.7561483579748 217.0453033580029 1679.1147841548604 392.4780210192691z" fill="rgba(124, 38, 147, 0.11)" class="triangle-float3"></path><path d="M1512.239,583.442C1585.998,583.768,1661.391,555.606,1696.791,490.896C1731.097,428.185,1708.42,353.601,1671.437,292.431C1636.003,233.824,1580.714,186.87,1512.239,185.647C1441.815,184.389,1379.049,226.126,1342.873,286.561C1305.607,348.818,1294.536,426.253,1330.49,489.277C1366.727,552.797,1439.11,583.119,1512.239,583.442" fill="rgba(124, 38, 147, 0.11)" class="triangle-float3"></path><path d="M1693.405,256.821C1761.479,255.959,1831.903,238.685,1868.29,181.146C1906.968,119.984,1908.221,39.635,1869.353,-21.407C1832.866,-78.709,1761.3,-91.23,1693.405,-93.506C1619.697,-95.977,1536.15,-95.64,1495.762,-33.933C1452.696,31.865,1466.466,120.639,1510.675,185.675C1550.059,243.613,1623.354,257.708,1693.405,256.821" fill="rgba(124, 38, 147, 0.11)" class="triangle-float1"></path><path d="M1666.6438634649323 655.8379719669636L1543.3622587303387 472.6892134252178 1455.7454924206718 644.6467994429597z" fill="rgba(124, 38, 147, 0.11)" class="triangle-float2"></path><path d="M33.25 479.91 a196.91 196.91 0 1 0 393.82 0 a196.91 196.91 0 1 0 -393.82 0z" fill="rgba(124, 38, 147, 0.11)" class="triangle-float1"></path><path d="M472.57049785819765 797.6237477325851L340.63526132848233 993.2257797830373 668.1725299086498 929.5589842623004z" fill="rgba(124, 38, 147, 0.11)" class="triangle-float3"></path><path d="M481.52 978.95 a273.8 273.8 0 1 0 547.6 0 a273.8 273.8 0 1 0 -547.6 0z" fill="rgba(124, 38, 147, 0.11)" class="triangle-float2"></path><path d="M886.8916113513544 445.52960696568806L1038.2972450592886 646.8505730871252 1127.8608746723014 445.68736737196167z" fill="rgba(124, 38, 147, 0.11)" class="triangle-float1"></path><path d="M775.317,593.416C857.038,591.079,937.68,560.539,979.637,490.372C1022.634,418.466,1018.293,328.862,977.151,255.879C935.224,181.505,860.632,131.215,775.317,127.925C683.868,124.398,591.791,160.792,544.587,239.196C496.027,319.853,498.317,423.779,549.702,502.666C597.121,575.465,688.472,595.899,775.317,593.416" fill="rgba(124, 38, 147, 0.11)" class="triangle-float2"></path><path d="M1223.25 898.67 a196.68 196.68 0 1 0 393.36 0 a196.68 196.68 0 1 0 -393.36 0z" fill="rgba(124, 38, 147, 0.11)" class="triangle-float2"></path></g><defs><mask id="SvgjsMask1027"><rect width="1920" height="1024" fill="#ffffff"></rect></mask><style>
            @keyframes float1 {
                0%{transform: translate(0, 0)}
                50%{transform: translate(-10px, 0)}
                100%{transform: translate(0, 0)}
            }

            .triangle-float1 {
                animation: float1 5s infinite;
            }

            @keyframes float2 {
                0%{transform: translate(0, 0)}
                50%{transform: translate(-5px, -5px)}
                100%{transform: translate(0, 0)}
            }

            .triangle-float2 {
                animation: float2 4s infinite;
            }

            @keyframes float3 {
                0%{transform: translate(0, 0)}
                50%{transform: translate(0, -10px)}
                100%{transform: translate(0, 0)}
            }

            .triangle-float3 {
                animation: float3 6s infinite;
            }
        </style></defs></svg>